<?xml version="1.0" standalone="no"?>
<svg width="64" height="64" viewBox="0 0 395 384" version="1.1" xmlns="http://www.w3.org/2000/svg">
  <path d="M395 192c0 -5 -3 -9 -6 -11v0l-48 -28l27 -46v0c2 -4 1 -9 -1 -13s-6 -6 -10 -6v0h-54v-55h-1c0 -4 -2 -8 -6 -10s-9 -3 -13 -1v0l-47 27l-27 -47v0c-2 -3 -6 -6 -11 -6s-9 3 -11 6v0l-27 46l-49 -28v0c-4 -2 -8 -1 -12 1s-7 6 -7 10v0v55h-55v0c-4 0 -8 3 -10 7 s-3 8 -1 12v0l27 48l-47 28v0c-3 2 -6 6 -6 11s3 9 6 11v0l48 28l-27 46v0c-2 4 -1 9 1 13s6 6 10 6v0h54v55v0c0 4 3 8 7 10s8 3 12 1v0l48 -27l27 47v0c2 3 6 6 11 6s9 -3 11 -6v0l27 -46l49 28v0c4 2 8 1 12 -1s7 -6 7 -10v0v-55h55v0c4 0 8 -3 10 -7s3 -8 1 -12v-1 l-27 -47l47 -28v0c3 -2 6 -6 6 -11z" transform="matrix(1,0,0,-1,0,384)"/>
</svg>