<?xml version="1.0" standalone="no"?>
<svg width="64" height="64" viewBox="0 0 399 384" version="1.1" xmlns="http://www.w3.org/2000/svg">
  <path d="M148 320c-3 2 -5 5 -5 9c0 6 4 10 10 10c3 0 6 -1 8 -3l60 -60c3 -2 5 -5 5 -9c0 -6 -5 -10 -11 -10c-2 0 -4 1 -6 2v0h-1v1zM215 111h-25c-14 0 -28 0 -41 1l24 -42c2 -3 4 -7 4 -11c0 -10 -8 -18 -18 -18c-6 0 -11 3 -14 7v0l-38 65l-37 -65h-1c-3 -4 -8 -7 -14 -7 c-10 0 -18 8 -18 18c0 4 2 8 4 11l32 56c-8 6 -14 29 -14 56c0 13 2 24 4 34l-57 33v0c-4 2 -6 6 -6 11c0 7 6 13 13 13c2 0 4 0 6 -1v0l56 -33c1 0 2 1 3 1h137v-129zM306 125l31 -55c2 -3 4 -7 4 -11c0 -10 -8 -18 -18 -18c-6 0 -11 3 -14 7h-1l-37 65l-38 -65v0 c-3 -4 -8 -7 -14 -7c-10 0 -18 8 -18 18c0 4 2 8 4 11l31 54v116l83 -83c-2 -17 -7 -29 -13 -32zM399 235c0 -4 -2 -8 -4 -10v0l-11 -11v0h-10h-40l-14 -14c1 -5 1 -11 1 -16l-72 72l42 42l26 45l13 -22c3 0 5 -2 7 -3v1l26 -15c7 -3 11 -10 11 -18v-21l20 -20 c3 -2 5 -6 5 -10z" transform="matrix(1,0,0,-1,0,384)"/>
</svg>