<?xml version="1.0" standalone="no"?>
<svg width="64" height="64" viewBox="0 0 384 384" version="1.1" xmlns="http://www.w3.org/2000/svg">
  <path d="M320 104c34 0 62 -28 62 -62s-28 -62 -62 -62s-62 28 -62 62c0 5 1 10 2 14l-152 88c-12 -11 -27 -17 -44 -17c-35 0 -64 29 -64 64s28 64 63 64c17 0 32 -6 44 -17l151 87c-1 5 -2 10 -2 15c0 35 29 64 64 64s64 -29 64 -64s-29 -64 -64 -64c-17 0 -32 6 -44 17 l-151 -87c1 -5 2 -10 2 -15s-1 -10 -2 -15l153 -88c11 11 26 16 42 16z" transform="matrix(1,0,0,-1,0,384)"/>
</svg>