<?xml version="1.0" standalone="no"?>
<svg width="64" height="64" viewBox="0 0 384 384" version="1.1" xmlns="http://www.w3.org/2000/svg">
  <path d="M380 252c6 -17 5 -38 -3 -57c-10 -25 -31 -43 -51 -43c-5 0 -10 1 -15 3c-22 10 -30 45 -17 79c10 28 31 46 51 46c5 0 10 -1 14 -3c10 -4 17 -13 21 -25zM90 234c13 -34 5 -69 -17 -79c-5 -2 -10 -3 -15 -3c-20 0 -41 18 -51 43c-8 19 -9 40 -3 57c4 12 11 21 21 25 c4 2 9 3 14 3c20 0 41 -18 51 -46zM134 237c-28 1 -52 32 -56 69c-2 23 4 45 16 60c8 10 19 17 31 18h6c27 -1 46 -29 50 -67c3 -24 -1 -48 -13 -63c-8 -9 -17 -15 -28 -16c-2 0 -4 -1 -6 -1zM192 208c64 0 128 -76 128 -149c0 -22 -11 -40 -22 -47c-13 -9 -23 -12 -42 -12 c-23 0 -29 8 -40 15c-8 5 -14 10 -24 10s-16 -5 -24 -10c-11 -7 -17 -15 -40 -15c-19 0 -29 3 -42 12c-11 7 -22 25 -22 47c0 73 64 149 128 149zM244 238c-11 1 -20 7 -28 16c-12 15 -16 39 -13 63c4 38 23 66 50 67h7c12 -1 22 -8 30 -18c12 -15 18 -37 16 -60 c-4 -37 -28 -67 -56 -68h-6z" transform="matrix(1,0,0,-1,0,384)"/>
</svg>