<?xml version="1.0" standalone="no"?>
<svg version="1.1" xmlns="http://www.w3.org/2000/svg" width="64" height="64">
  <path d="M512 1024c282.77 0 512-229.23 512-512s-229.23-512-512-512-512 229.23-512 512 229.23 512 512 512zM512 96c229.75 0 416 186.25 416 416s-186.25 416-416 416-416-186.25-416-416 186.25-416 416-416z" transform=""/>
  <path d="M640 672c0 88.366-57.308 160-128.002 160s-128.002-71.634-128.002-160c0-88.366 57.308-160 128.002-160s128.002 71.634 128.002 160z" transform=""/>
  <path d="M416 340c-8.19 0-16.378-3.124-22.626-9.374-19.334-19.332-63.412-19.332-82.746 0-12.496 12.498-32.758 12.498-45.254 0-12.498-12.496-12.498-32.758 0-45.254 44.528-44.53 128.726-44.53 173.254 0 12.498 12.496 12.498 32.758 0 45.254-6.248 6.25-14.438 9.374-22.628 9.374z" transform=""/>
  <path d="M736 340c-8.19 0-16.378-3.124-22.626-9.374-19.332-19.332-63.414-19.332-82.746 0-12.496 12.498-32.758 12.498-45.254 0-12.498-12.496-12.498-32.758 0-45.254 44.528-44.53 128.726-44.53 173.254 0 12.498 12.496 12.498 32.758 0 45.254-6.248 6.25-14.438 9.374-22.628 9.374z" transform=""/>
</svg>